<svg width="66" height="48" viewBox="0 0 66 48" fill="none" xmlns="http://www.w3.org/2000/svg">
<g clip-path="url(#clip0_1_36)">
<path d="M11.9622 47.8948V44.7093C11.9622 43.4907 11.1695 42.6928 9.80884 42.6928C9.1285 42.6928 8.38871 42.9031 7.8801 43.5959C7.48378 43.0144 6.91573 42.6928 6.06365 42.6928C5.49559 42.6928 4.92754 42.8536 4.47838 43.435V42.7979H3.28943V47.8948H4.47838V45.0804C4.47838 44.1773 4.98699 43.7505 5.77962 43.7505C6.57226 43.7505 6.96857 44.2268 6.96857 45.0804V47.8948H8.15752V45.0804C8.15752 44.1773 8.72558 43.7505 9.45876 43.7505C10.2514 43.7505 10.6477 44.2268 10.6477 45.0804V47.8948H11.9622ZM29.5983 42.7979H27.6695V41.2577H26.4806V42.7979H25.4039V43.8062H26.4806V46.1443C26.4806 47.3134 26.9892 48 28.3499 48C28.8585 48 29.4265 47.8392 29.8229 47.6289L29.4794 46.6701C29.1359 46.8804 28.7396 46.9361 28.4556 46.9361C27.8875 46.9361 27.6629 46.6144 27.6629 46.0886V43.8062H29.5917V42.7979H29.5983ZM39.6912 42.6866C39.0108 42.6866 38.555 43.0082 38.271 43.4289V42.7917H37.0821V47.8887H38.271V45.0185C38.271 44.1711 38.6673 43.6886 39.4071 43.6886C39.6317 43.6886 39.9157 43.7443 40.1469 43.7938L40.4904 42.7299C40.2526 42.6866 39.9157 42.6866 39.6912 42.6866ZM24.4396 43.2185C23.8715 42.8474 23.0789 42.6866 22.2268 42.6866C20.8661 42.6866 19.9612 43.3237 19.9612 44.332C19.9612 45.1794 20.6415 45.6618 21.8305 45.8165L22.3985 45.8722C23.0194 45.9773 23.3629 46.1381 23.3629 46.4041C23.3629 46.7752 22.9071 47.0412 22.1145 47.0412C21.3219 47.0412 20.6944 46.7753 20.298 46.5093L19.73 47.3567C20.3509 47.7835 21.203 47.9938 22.055 47.9938C23.6403 47.9938 24.5518 47.301 24.5518 46.3484C24.5518 45.4454 23.812 44.9691 22.6825 44.8082L22.1145 44.7526C21.6059 44.6969 21.2096 44.5917 21.2096 44.2763C21.2096 43.9051 21.6059 43.6948 22.2334 43.6948C22.9137 43.6948 23.5941 43.9608 23.9375 44.1216L24.4396 43.2185ZM56.0723 42.6866C55.3919 42.6866 54.9362 43.0082 54.6521 43.4289V42.7917H53.4632V47.8887H54.6521V45.0185C54.6521 44.1711 55.0484 43.6886 55.7882 43.6886C56.0128 43.6886 56.2968 43.7443 56.528 43.7938L56.8715 42.7423C56.6403 42.6866 56.3034 42.6866 56.0723 42.6866ZM40.8801 45.3464C40.8801 46.8866 42.0162 48 43.7732 48C44.5659 48 45.1339 47.8392 45.702 47.4185L45.1339 46.5155C44.6781 46.8371 44.229 46.9917 43.7138 46.9917C42.7494 46.9917 42.0691 46.3546 42.0691 45.3464C42.0691 44.3876 42.7494 43.7505 43.7138 43.701C44.2224 43.701 44.6781 43.8618 45.1339 44.1773L45.702 43.2742C45.1339 42.8474 44.5659 42.6928 43.7732 42.6928C42.0162 42.6866 40.8801 43.8062 40.8801 45.3464ZM51.8779 45.3464V42.7979H50.689V43.435C50.2926 42.9588 49.7246 42.6928 48.9848 42.6928C47.4524 42.6928 46.2634 43.8062 46.2634 45.3464C46.2634 46.8866 47.4524 48 48.9848 48C49.7774 48 50.3455 47.734 50.689 47.2577V47.8948H51.8779V45.3464ZM47.5118 45.3464C47.5118 44.4433 48.1327 43.701 49.1565 43.701C50.1209 43.701 50.8012 44.3938 50.8012 45.3464C50.8012 46.2495 50.1209 46.9917 49.1565 46.9917C48.1393 46.9361 47.5118 46.2433 47.5118 45.3464ZM33.284 42.6866C31.6988 42.6866 30.5627 43.7505 30.5627 45.3402C30.5627 46.9361 31.6988 47.9938 33.3435 47.9938C34.1361 47.9938 34.9287 47.7835 35.5562 47.301L34.9882 46.5031C34.5324 46.8247 33.9644 47.035 33.4029 47.035C32.6631 47.035 31.9299 46.7134 31.7582 45.8165H35.7808C35.7808 45.6557 35.7808 45.5505 35.7808 45.3897C35.8337 43.7505 34.8098 42.6866 33.284 42.6866ZM33.284 43.6454C34.0238 43.6454 34.5324 44.0722 34.6447 44.8639H31.811C31.9233 44.1773 32.4319 43.6454 33.284 43.6454ZM62.8229 45.3464V40.7814H61.6339V43.435C61.2376 42.9588 60.6695 42.6928 59.9297 42.6928C58.3973 42.6928 57.2084 43.8062 57.2084 45.3464C57.2084 46.8866 58.3973 48 59.9297 48C60.7224 48 61.2904 47.734 61.6339 47.2577V47.8948H62.8229V45.3464ZM58.4568 45.3464C58.4568 44.4433 59.0777 43.701 60.1015 43.701C61.0659 43.701 61.7462 44.3938 61.7462 45.3464C61.7462 46.2495 61.0659 46.9917 60.1015 46.9917C59.0777 46.9361 58.4568 46.2433 58.4568 45.3464ZM18.6533 45.3464V42.7979H17.4644V43.435C17.0681 42.9588 16.5 42.6928 15.7602 42.6928C14.2278 42.6928 13.0388 43.8062 13.0388 45.3464C13.0388 46.8866 14.2278 48 15.7602 48C16.5528 48 17.1209 47.734 17.4644 47.2577V47.8948H18.6533V45.3464ZM14.2344 45.3464C14.2344 44.4433 14.8553 43.701 15.8791 43.701C16.8435 43.701 17.5238 44.3938 17.5238 45.3464C17.5238 46.2495 16.8435 46.9917 15.8791 46.9917C14.8553 46.9361 14.2344 46.2433 14.2344 45.3464Z" fill="white"/>
<path d="M41.9039 4.08868H24.0432V34.1382H41.9039V4.08868Z" fill="#FF5A00"/>
<path d="M25.2322 19.1134C25.2322 13.0082 28.297 7.58969 33 4.08866C29.5388 1.54021 25.1727 0 20.4103 0C9.1285 0 0 8.54845 0 19.1134C0 29.6783 9.1285 38.2268 20.4103 38.2268C25.1727 38.2268 29.5388 36.6866 33 34.1381C28.2904 30.6866 25.2322 25.2186 25.2322 19.1134Z" fill="#EB001B"/>
<path d="M66 19.1134C66 29.6783 56.8715 38.2268 45.5897 38.2268C40.8273 38.2268 36.4612 36.6866 33 34.1381C37.7624 30.6309 40.7678 25.2186 40.7678 19.1134C40.7678 13.0082 37.703 7.58969 33 4.08866C36.4546 1.54021 40.8207 0 45.5831 0C56.8715 0 66 8.60412 66 19.1134Z" fill="#F79E1B"/>
</g>
<defs>
<clipPath id="clip0_1_36">
<rect width="66" height="48" fill="white"/>
</clipPath>
</defs>
</svg>
