<svg width="94" height="44" viewBox="0 0 94 44" fill="none" xmlns="http://www.w3.org/2000/svg">
<path d="M68.3324 1.8023C66.1479 0.586471 63.8388 -0.023639 61.5138 0.000700507C53.9949 0.000700507 48.6847 5.78592 48.6471 14.0905C48.6001 20.1916 52.4206 23.6297 55.3107 25.6682C58.276 27.764 59.2675 29.0847 59.2581 30.9581C59.2393 33.8077 56.8897 35.0997 54.7045 35.0997C51.7016 35.0997 50.0616 34.4608 47.5381 32.8602L46.6029 32.1927L45.5362 41.7534C47.3642 42.9162 50.6584 43.9139 54.0607 44C62.0542 44 67.2798 38.2507 67.3409 29.4149C67.4067 24.5413 65.339 20.8591 60.9874 17.8157C58.3417 15.8419 56.7017 14.5212 56.7017 12.5186C56.7017 10.7457 58.1068 8.8508 61.0438 8.8508C62.9986 8.77857 64.9412 9.33873 66.7441 10.4945L67.449 10.9754L68.5157 1.7377L68.3324 1.8023ZM87.8439 0.775891H81.9698C80.1418 0.775891 78.7649 1.5439 77.966 4.3145L66.6689 43.4043H74.6624L76.2602 36.9946L86.0159 37.0089C86.2462 38.5091 86.9511 43.4043 86.9511 43.4043H94L87.8439 0.775891ZM37.834 0.417004H45.4516L40.6865 43.0669H33.0783L37.834 0.40265V0.417004ZM18.4964 23.924L19.2859 29.8456L26.7296 0.775891H34.7983L22.8104 43.3468H14.7605L8.18147 7.30042C8.07492 6.70604 7.82468 6.19557 7.48128 5.87206C5.11002 4.0011 2.59751 2.58128 0 1.64439L0.103384 0.747175H12.3638C14.0274 0.847663 15.3667 1.64439 15.8131 4.35756L18.4917 23.9455L18.4964 23.924ZM78.4453 28.2737L81.4811 16.3443C81.4435 16.4735 82.1061 13.8824 82.4914 12.2817L83.0131 15.9639L84.7753 28.2665H78.4406L78.4453 28.2737Z" fill="white"/>
</svg>
